<?xml version="1.0" encoding="UTF-8" standalone="no"?>
<svg
   xmlns:dc="http://purl.org/dc/elements/1.1/"
   xmlns:cc="http://creativecommons.org/ns#"
   xmlns:rdf="http://www.w3.org/1999/02/22-rdf-syntax-ns#"
   xmlns:svg="http://www.w3.org/2000/svg"
   xmlns="http://www.w3.org/2000/svg"
   xmlns:xlink="http://www.w3.org/1999/xlink"
   xmlns:sodipodi="http://sodipodi.sourceforge.net/DTD/sodipodi-0.dtd"
   xmlns:inkscape="http://www.inkscape.org/namespaces/inkscape"
   width="24"
   height="24"
   viewBox="0 0 24 24"
   version="1.1"
   id="svg4585"
   sodipodi:docname="ic_expansion_panel_24px.svg"
   inkscape:version="0.92.1 r15371">
  <metadata
     id="metadata4589">
    <rdf:RDF>
      <cc:Work
         rdf:about="">
        <dc:format>image/svg+xml</dc:format>
        <dc:type
           rdf:resource="http://purl.org/dc/dcmitype/StillImage" />
        <dc:title></dc:title>
      </cc:Work>
    </rdf:RDF>
  </metadata>
  <sodipodi:namedview
     pagecolor="#ffffff"
     bordercolor="#666666"
     borderopacity="1"
     objecttolerance="10"
     gridtolerance="10"
     guidetolerance="10"
     inkscape:pageopacity="0"
     inkscape:pageshadow="2"
     inkscape:window-width="1855"
     inkscape:window-height="1056"
     id="namedview4587"
     showgrid="true"
     inkscape:zoom="38.083333"
     inkscape:cx="12"
     inkscape:cy="12"
     inkscape:window-x="65"
     inkscape:window-y="24"
     inkscape:window-maximized="1"
     inkscape:current-layer="svg4585">
    <inkscape:grid
       type="xygrid"
       id="grid4591" />
  </sodipodi:namedview>
  <defs
     id="defs4566">
    <path
       id="a"
       d="M-240.34-677.17c-18.22 0-33 15.15-33 33.84 0 14.95 9.45 27.63 22.57 32.11 1.65.31 2.25-.74 2.25-1.63 0-.8-.03-2.93-.04-5.75-9.18 2.04-11.12-4.54-11.12-4.54-1.5-3.91-3.66-4.95-3.66-4.95-3-2.1.23-2.06.23-2.06 3.31.24 5.05 3.49 5.05 3.49 2.94 5.17 7.72 3.68 9.6 2.81.3-2.19 1.15-3.68 2.09-4.52-7.33-.85-15.03-3.76-15.03-16.72 0-3.69 1.29-6.71 3.4-9.08-.34-.86-1.47-4.3.32-8.95 0 0 2.77-.91 9.08 3.47 2.63-.75 5.46-1.13 8.26-1.14 2.8.01 5.63.39 8.26 1.14 6.3-4.38 9.07-3.47 9.07-3.47 1.8 4.66.67 8.1.33 8.95 2.11 2.37 3.39 5.39 3.39 9.08 0 13-7.72 15.86-15.07 16.7 1.19 1.04 2.24 3.11 2.24 6.27 0 4.52-.04 8.17-.04 9.28 0 .91.59 1.96 2.27 1.63 13.1-4.48 22.55-17.16 22.55-32.1.01-18.71-14.77-33.86-33-33.86" />
  </defs>
  <clipPath
     id="b">
    <use
       xlink:href="#a"
       overflow="visible"
       id="use4568" />
  </clipPath>
  <path
     fill="none"
     d="M0 0h24v24H0z"
     id="path4583" />
  <path
     style="fill:#000000;fill-opacity:1;stroke:none;stroke-width:1px;stroke-linecap:butt;stroke-linejoin:miter;stroke-opacity:1"
     d="M 2,2 V 22 H 22 V 2 Z M 4,4 H 20 V 20 H 4 Z"
     id="path4593"
     inkscape:connector-curvature="0"
     sodipodi:nodetypes="cccccccccc" />
  <path
     style="fill:#000000;fill-opacity:1;stroke:none;stroke-width:1px;stroke-linecap:butt;stroke-linejoin:miter;stroke-opacity:1"
     d="M 11.992303,9.0076975 15,6 l 3,3 -1,1 -2,-2 -2,2 z"
     id="path4599"
     inkscape:connector-curvature="0"
     sodipodi:nodetypes="ccccccc" />
</svg>
